<svg width="447" height="223" viewBox="0 0 447 223" fill="none" xmlns="http://www.w3.org/2000/svg">
<path d="M237.516 39.4769H249.038V57.6779C243.949 63.3539 236.904 66.1909 227.902 66.1909C220.367 66.1909 214.043 63.6959 208.931 58.7049C203.818 53.7149 201.262 47.4159 201.262 39.8079C201.262 32.1999 203.867 25.8519 209.078 20.7629C214.288 15.6759 220.575 13.1299 227.938 13.1299C235.302 13.1299 241.699 15.5519 247.129 20.3959L241.185 28.9829C238.885 26.9769 236.769 25.5949 234.837 24.8369C232.903 24.0789 230.812 23.6989 228.562 23.6989C224.207 23.6989 220.539 25.1789 217.554 28.1389C214.568 31.0999 213.077 35.0009 213.077 39.8449C213.077 44.6889 214.508 48.5669 217.37 51.4769C220.233 54.3889 223.645 55.8439 227.608 55.8439C231.571 55.8439 234.873 55.0859 237.514 53.5689V39.4769H237.516Z" fill="white"/>
<path d="M276.266 35.808C272.987 35.808 270.541 36.971 268.926 39.294C267.312 41.618 266.504 44.688 266.504 48.504V65.604H255.496V26.121H266.504V31.331C267.923 29.716 269.696 28.347 271.825 27.221C273.954 26.097 276.118 25.509 278.319 25.46L278.392 35.808H276.266Z" fill="white"/>
<path d="M317.216 59.879C312.763 64.088 307.539 66.1909 301.548 66.1909C295.555 66.1909 290.6 64.345 286.687 60.65C282.771 56.956 280.816 52.003 280.816 45.789C280.816 39.576 282.809 34.634 286.796 30.964C290.783 27.295 295.492 25.46 300.924 25.46C306.356 25.46 310.965 27.1 314.758 30.377C318.549 33.655 320.445 38.156 320.445 43.881V49.752H291.677C292.018 51.905 293.145 53.666 295.053 55.036C296.961 56.406 299.113 57.091 301.511 57.091C305.375 57.091 308.556 55.795 311.051 53.201L317.216 59.879ZM306.649 36.468C305.13 35.196 303.284 34.56 301.108 34.56C298.93 34.56 296.936 35.22 295.126 36.542C293.316 37.863 292.265 39.65 291.972 41.899H309.292C309.045 39.55 308.164 37.741 306.649 36.468Z" fill="white"/>
<path d="M359.929 59.879C355.476 64.088 350.252 66.1909 344.261 66.1909C338.268 66.1909 333.312 64.345 329.4 60.65C325.485 56.956 323.529 52.003 323.529 45.789C323.529 39.576 325.522 34.634 329.509 30.964C333.496 27.295 338.205 25.46 343.637 25.46C349.068 25.46 353.678 27.1 357.472 30.377C361.262 33.655 363.158 38.156 363.158 43.881V49.752H334.39C334.732 51.905 335.859 53.666 337.765 55.036C339.674 56.406 341.826 57.091 344.224 57.091C348.088 57.091 351.269 55.795 353.765 53.201L359.929 59.879ZM349.361 36.468C347.843 35.196 345.997 34.56 343.82 34.56C341.643 34.56 339.649 35.22 337.84 36.542C336.028 37.863 334.978 39.65 334.685 41.899H352.004C351.757 39.55 350.878 37.741 349.361 36.468Z" fill="white"/>
<path d="M379.449 43.586V65.603H368.441V26.12H379.449V30.523C382.777 27.147 386.518 25.459 390.678 25.459C394.835 25.459 398.323 26.926 401.135 29.862C403.948 32.797 405.356 36.712 405.356 41.604V65.602H394.348V43.291C394.348 37.225 392.119 34.191 387.669 34.191C385.467 34.191 383.547 34.987 381.908 36.576C380.268 38.168 379.449 40.504 379.449 43.586Z" fill="white"/>
<path d="M241.186 78.5352V88.7361H215.647V99.3051H238.618V109.065H215.647V119.707H241.994V129.835H204.199V78.5361L241.186 78.5352Z" fill="white"/>
<path d="M259.091 107.816V129.834H248.084V90.3514H259.092V94.7554C262.42 91.3774 266.161 89.6895 270.321 89.6895C274.478 89.6895 277.966 91.1584 280.778 94.0924C283.591 97.0274 284.999 100.942 284.999 105.834V129.833H273.991V107.522C273.991 101.456 271.762 98.4214 267.312 98.4214C265.11 98.4214 263.19 99.2184 261.551 100.808C259.911 102.399 259.091 104.734 259.091 107.816Z" fill="white"/>
<path d="M326.538 124.109C322.085 128.318 316.862 130.419 310.871 130.419C304.876 130.419 299.922 128.573 296.009 124.879C292.094 121.186 290.137 116.231 290.137 110.018C290.137 103.805 292.131 98.8624 296.118 95.1944C300.105 91.5244 304.815 89.6895 310.246 89.6895C315.677 89.6895 320.287 91.3314 324.08 94.6064C327.871 97.8854 329.767 102.385 329.767 108.111V113.982H300.999C301.341 116.135 302.467 117.897 304.374 119.265C306.283 120.636 308.436 121.321 310.833 121.321C314.697 121.321 317.878 120.024 320.373 117.431L326.538 124.109ZM315.969 100.698C314.451 99.4264 312.605 98.7914 310.428 98.7914C308.251 98.7914 306.257 99.4515 304.448 100.771C302.637 102.092 301.586 103.878 301.293 106.129H318.612C318.366 103.781 317.486 101.97 315.969 100.698Z" fill="white"/>
<path d="M355.819 100.039C352.54 100.039 350.094 101.2 348.48 103.523C346.866 105.848 346.057 108.918 346.057 112.734V129.834H335.049V90.3514H346.057V95.5624C347.477 93.9484 349.25 92.5795 351.379 91.4525C353.507 90.3285 355.672 89.7404 357.872 89.6904L357.946 100.04H355.819V100.039Z" fill="white"/>
<path d="M391.778 123.155C388.304 127.02 383.986 128.954 378.826 128.954C373.662 128.954 369.308 127.205 365.762 123.706C362.215 120.208 360.441 115.536 360.441 109.689C360.441 103.842 362.264 99.0484 365.91 95.3044C369.554 91.5614 373.725 89.6904 378.423 89.6904C383.12 89.6904 387.01 91.6254 390.092 95.4884V90.2784H401.1V124.697C401.1 128.22 400.488 131.35 399.266 134.092C398.043 136.831 396.404 138.983 394.349 140.55C390.286 143.779 385.493 145.394 379.964 145.394C377.029 145.394 374.031 144.916 370.974 143.962C367.915 143.008 365.238 141.651 362.938 139.889L367.195 131.597C370.815 134.336 374.644 135.705 378.68 135.705C382.717 135.705 385.91 134.702 388.258 132.697C390.604 130.689 391.778 127.51 391.778 123.155ZM390.237 109.248C390.237 106.094 389.356 103.609 387.594 101.798C385.834 99.9904 383.656 99.0844 381.063 99.0844C378.469 99.0844 376.231 99.9904 374.348 101.798C372.465 103.61 371.523 106.082 371.523 109.212C371.523 112.343 372.44 114.875 374.275 116.808C376.11 118.741 378.348 119.706 380.99 119.706C383.632 119.706 385.835 118.752 387.594 116.844C389.356 114.935 390.237 112.403 390.237 109.248Z" fill="white"/>
<path d="M415.703 145.393C411.838 145.393 408.192 143.827 404.768 140.696L409.758 132.549C411.617 134.36 413.525 135.265 415.483 135.265C416.51 135.265 417.39 134.762 418.125 133.761C418.86 132.758 419.226 131.694 419.226 130.568C419.226 129.443 414.137 116.038 403.961 90.3506H415.703L425.316 114.936L434.931 90.3506H446.673L428.326 136.88C427.249 139.57 425.573 141.661 423.298 143.153C421.023 144.646 418.491 145.393 415.703 145.393Z" fill="white"/>
<path d="M219.761 164.405V173.62H218.544V164.638C218.544 161.537 216.719 159.712 213.618 159.712C210.14 159.798 207.997 161.971 207.736 165.448V173.62H206.518V158.523H207.736V162.377C208.75 159.884 210.894 158.552 213.907 158.493C217.588 158.494 219.761 160.725 219.761 164.405Z" fill="white"/>
<path d="M234.968 170.635C233.694 172.722 231.549 173.648 228.942 173.648C225.957 173.648 223.957 171.764 223.957 169.216C223.957 166.694 226.102 165.158 229.579 165.158H234.94V163.679C234.911 161.129 233.433 159.594 230.419 159.594C228.535 159.594 226.942 160.347 225.348 161.564L224.769 160.636C226.565 159.333 228.303 158.492 230.593 158.492C234.158 158.492 236.098 160.462 236.127 163.593L236.185 173.618H234.999L234.968 170.635ZM234.968 168.694V166.23H229.695C226.739 166.23 225.117 167.245 225.117 169.186C225.117 171.186 226.653 172.547 229.116 172.547C231.925 172.547 234.041 171.331 234.968 168.694Z" fill="white"/>
<path d="M248.817 172.576C247.86 173.244 246.789 173.648 245.659 173.648C243.514 173.678 242.239 172.287 242.239 169.448V159.943H240.037V158.899H242.239V155.162H243.398V158.899H248.527V159.943H243.398V169.301C243.398 171.446 244.239 172.489 245.803 172.46C246.672 172.46 247.571 172.141 248.353 171.59L248.817 172.576Z" fill="white"/>
<path d="M265.011 173.62H263.823V169.592C262.867 172.2 260.751 173.62 257.767 173.649C254.116 173.649 252 171.448 252 167.738V158.524H253.188V167.507C253.188 170.607 254.985 172.433 258.027 172.433C261.678 172.346 263.823 169.854 263.823 165.913V158.524H265.011V173.62Z" fill="white"/>
<path d="M272.281 162.319C273.238 159.884 275.209 158.552 277.902 158.494V159.74C274.57 159.74 272.542 161.942 272.281 165.448V173.62H271.064V158.523H272.281V162.319Z" fill="white"/>
<path d="M290.072 170.635C288.797 172.722 286.653 173.648 284.045 173.648C281.061 173.648 279.061 171.764 279.061 169.216C279.061 166.694 281.206 165.158 284.683 165.158H290.043V163.679C290.015 161.129 288.536 159.594 285.522 159.594C283.638 159.594 282.045 160.347 280.451 161.564L279.873 160.636C281.669 159.333 283.407 158.492 285.696 158.492C289.261 158.492 291.202 160.462 291.231 163.593L291.29 173.618H290.101L290.072 170.635ZM290.072 168.694V166.23H284.798C281.843 166.23 280.22 167.245 280.22 169.186C280.22 171.186 281.756 172.547 284.22 172.547C287.029 172.547 289.144 171.331 290.072 168.694Z" fill="white"/>
<path d="M296.961 173.62V152.119H298.178V173.62H296.961Z" fill="white"/>
<path d="M327.82 166.085C327.82 170.49 324.807 173.648 320.549 173.648C317.593 173.648 315.274 172.113 314.145 169.679V179.242H312.928V158.523H314.145V162.493C315.274 160.03 317.593 158.494 320.549 158.494C324.779 158.494 327.82 161.652 327.82 166.085ZM326.633 166.085C326.633 162.348 324.025 159.623 320.373 159.623C316.751 159.623 314.144 162.348 314.144 166.085C314.144 169.823 316.751 172.518 320.373 172.518C324.025 172.518 326.633 169.824 326.633 166.085Z" fill="white"/>
<path d="M345.491 166.057C345.491 170.519 342.361 173.648 338.044 173.648C333.756 173.648 330.598 170.519 330.598 166.057C330.598 161.652 333.756 158.493 338.044 158.493C342.361 158.494 345.491 161.652 345.491 166.057ZM331.785 166.085C331.785 169.882 334.423 172.518 338.044 172.518C341.694 172.518 344.303 169.882 344.303 166.085C344.303 162.289 341.695 159.652 338.044 159.652C334.422 159.653 331.785 162.29 331.785 166.085Z" fill="white"/>
<path d="M363.743 173.62L358.729 160.117L353.659 173.62H352.413L346.705 158.523H348.009L353.051 172.315L358.064 158.523H359.369L364.41 172.315L369.423 158.523H370.698L364.99 173.62H363.743Z" fill="white"/>
<path d="M386.02 166.405H372.836C373.009 170.085 375.56 172.548 379.065 172.548C381.123 172.548 382.948 171.794 384.166 170.462L384.86 171.244C383.469 172.751 381.412 173.648 379.007 173.648C374.748 173.648 371.648 170.519 371.648 166.085C371.648 161.651 374.749 158.493 379.007 158.493C383.442 158.494 386.107 161.739 386.02 166.405ZM384.918 165.332C384.687 161.912 382.456 159.595 379.007 159.595C375.617 159.595 373.154 161.912 372.864 165.332H384.918Z" fill="white"/>
<path d="M391.551 162.319C392.507 159.884 394.479 158.552 397.172 158.494V159.74C393.84 159.74 391.812 161.942 391.551 165.448V173.62H390.334V158.523H391.551V162.319Z" fill="white"/>
<path d="M213.618 207.34C212.662 208.008 211.589 208.412 210.46 208.412C208.315 208.442 207.04 207.052 207.04 204.212V194.707H204.838V193.663H207.04V189.926H208.199V193.663H213.328V194.707H208.199V204.065C208.199 206.211 209.04 207.254 210.604 207.224C211.473 207.224 212.372 206.905 213.154 206.354L213.618 207.34Z" fill="white"/>
<path d="M229.786 201.169H216.601C216.774 204.849 219.325 207.312 222.83 207.312C224.888 207.312 226.713 206.559 227.929 205.226L228.625 206.008C227.234 207.515 225.177 208.412 222.772 208.412C218.511 208.412 215.412 205.283 215.412 200.849C215.412 196.415 218.512 193.257 222.772 193.257C227.206 193.258 229.872 196.503 229.786 201.169ZM228.683 200.097C228.451 196.677 226.221 194.359 222.773 194.359C219.382 194.359 216.919 196.677 216.629 200.097H228.683Z" fill="white"/>
<path d="M245.254 195.374L244.559 196.242C243.341 195.112 241.777 194.417 239.894 194.417C236.272 194.417 233.664 197.054 233.664 200.821C233.664 204.645 236.272 207.283 239.894 207.283C241.921 207.283 243.661 206.529 244.819 205.168L245.544 205.95C244.212 207.514 242.213 208.412 239.864 208.412C235.605 208.412 232.475 205.283 232.475 200.849C232.475 196.415 235.605 193.257 239.864 193.257C242.037 193.258 243.921 194.042 245.254 195.374Z" fill="white"/>
<path d="M263.708 199.17V208.384H262.491V199.402C262.491 196.3 260.666 194.475 257.565 194.475C253.827 194.562 251.654 197.054 251.654 200.995V208.385H250.438V186.884H251.654V197.229C252.668 194.678 254.812 193.318 257.854 193.259C261.535 193.258 263.708 195.49 263.708 199.17Z" fill="white"/>
<path d="M282.481 199.17V208.384H281.264V199.402C281.264 196.3 279.439 194.475 276.338 194.475C272.86 194.562 270.716 196.735 270.455 200.213V208.384H269.238V193.287H270.455V197.14C271.469 194.649 273.614 193.316 276.627 193.257C280.308 193.258 282.481 195.49 282.481 199.17Z" fill="white"/>
<path d="M301.285 200.822C301.285 205.284 298.155 208.413 293.838 208.413C289.55 208.413 286.391 205.284 286.391 200.822C286.391 196.417 289.55 193.259 293.838 193.259C298.155 193.258 301.285 196.417 301.285 200.822ZM287.578 200.85C287.578 204.646 290.216 207.284 293.838 207.284C297.488 207.284 300.096 204.646 300.096 200.85C300.096 197.054 297.489 194.417 293.838 194.417C290.215 194.417 287.578 197.054 287.578 200.85Z" fill="white"/>
<path d="M305.828 208.384V186.883H307.045V208.384H305.828Z" fill="white"/>
<path d="M326.488 200.822C326.488 205.284 323.359 208.413 319.042 208.413C314.754 208.413 311.596 205.284 311.596 200.822C311.596 196.417 314.754 193.259 319.042 193.259C323.359 193.258 326.488 196.417 326.488 200.822ZM312.783 200.85C312.783 204.646 315.42 207.284 319.042 207.284C322.692 207.284 325.301 204.646 325.301 200.85C325.301 197.054 322.693 194.417 319.042 194.417C315.419 194.417 312.783 197.054 312.783 200.85Z" fill="white"/>
<path d="M343.579 206.733C343.579 211.195 340.712 214.035 336.277 214.006C333.873 213.947 331.93 213.136 330.163 211.542L330.801 210.644C332.366 212.123 334.075 212.818 336.248 212.876C339.986 212.904 342.42 210.5 342.42 206.733V203.893C341.378 206.297 339.117 207.776 336.248 207.776C332.192 207.776 329.266 204.734 329.266 200.531C329.266 196.301 332.193 193.259 336.22 193.259C339.118 193.259 341.349 194.766 342.42 197.171V193.288H343.579V206.733ZM342.42 200.56C342.42 196.966 339.87 194.359 336.394 194.359C332.917 194.359 330.395 196.966 330.395 200.56C330.395 204.124 332.888 206.733 336.394 206.733C339.87 206.733 342.42 204.124 342.42 200.56Z" fill="white"/>
<path d="M350.818 188.941C350.818 189.549 350.355 190.013 349.804 190.013C349.254 190.013 348.789 189.549 348.789 188.941C348.789 188.361 349.254 187.897 349.804 187.897C350.355 187.897 350.818 188.361 350.818 188.941ZM349.197 208.384V193.287H350.385V208.384H349.197Z" fill="white"/>
<path d="M369.187 201.169H356.003C356.177 204.849 358.727 207.312 362.233 207.312C364.291 207.312 366.115 206.559 367.334 205.226L368.028 206.008C366.636 207.515 364.579 208.412 362.175 208.412C357.916 208.412 354.816 205.283 354.816 200.849C354.816 196.415 357.917 193.257 362.175 193.257C366.609 193.258 369.275 196.503 369.187 201.169ZM368.086 200.097C367.854 196.677 365.623 194.359 362.175 194.359C358.784 194.359 356.322 196.677 356.032 200.097H368.086Z" fill="white"/>
<path d="M381.386 194.446L380.864 195.431C379.822 194.765 378.488 194.359 377.04 194.359C374.925 194.359 373.272 195.17 373.272 196.966C373.272 201.024 382.081 199.024 382.081 204.356C382.081 207.168 379.56 208.413 376.837 208.413C374.722 208.413 372.694 207.66 371.303 206.327L371.852 205.4C373.157 206.617 374.983 207.312 376.895 207.312C379.01 207.312 380.836 206.471 380.922 204.559C381.039 200.299 372.113 202.242 372.113 197.054C372.113 194.417 374.402 193.258 377.068 193.258C378.749 193.258 380.197 193.722 381.386 194.446Z" fill="white"/>
<path d="M139.28 5.2681C122.612 -5.3789 109.206 0.507092 102.787 19.3601L89.476 62.4631C88.188 66.5781 90.097 69.9151 93.742 69.9151H130.465C141.93 69.9151 150.721 83.8261 141.595 95.1281L80.654 168.114C77.838 171.603 73.565 170.222 74.816 166.227L88.866 110.877C90.156 106.761 88.245 103.425 84.601 103.425H59.099C44.63 103.425 40.891 92.8221 43.895 81.8391L60.686 18.6861C63.587 7.7761 52.817 -2.4779 43.173 3.3891C17.288 19.1351 0 47.6091 0 80.1221C0 148.295 55.912 161.046 45.122 222.843C93.187 203.226 179.506 150.257 179.506 80.1221C179.504 48.8621 163.789 20.9241 139.28 5.2681Z" fill="#00D4AA"/>
</svg>
