<svg width="372" height="146" viewBox="0 0 372 146" fill="none" xmlns="http://www.w3.org/2000/svg">
<path d="M162.701 39.3743H174.223V57.5753C169.134 63.2513 162.089 66.0883 153.087 66.0883C145.552 66.0883 139.228 63.5933 134.116 58.6023C129.003 53.6123 126.447 47.3133 126.447 39.7053C126.447 32.0973 129.052 25.7493 134.263 20.6603C139.473 15.5733 145.76 13.0273 153.123 13.0273C160.487 13.0273 166.884 15.4494 172.314 20.2934L166.37 28.8803C164.07 26.8743 161.954 25.4923 160.022 24.7343C158.088 23.9763 155.997 23.5963 153.747 23.5963C149.392 23.5963 145.724 25.0763 142.739 28.0363C139.753 30.9973 138.262 34.8983 138.262 39.7423C138.262 44.5863 139.693 48.4643 142.555 51.3743C145.418 54.2863 148.83 55.7413 152.793 55.7413C156.756 55.7413 160.058 54.9833 162.699 53.4663V39.3743H162.701Z" fill="white"/>
<path d="M201.452 35.7054C198.173 35.7054 195.727 36.8684 194.112 39.1914C192.498 41.5154 191.69 44.5854 191.69 48.4014V65.5014H180.682V26.0184H191.69V31.2284C193.109 29.6134 194.882 28.2444 197.011 27.1184C199.14 25.9944 201.304 25.4064 203.505 25.3574L203.578 35.7054H201.452Z" fill="white"/>
<path d="M242.402 59.7764C237.949 63.9854 232.725 66.0884 226.734 66.0884C220.741 66.0884 215.786 64.2424 211.873 60.5474C207.957 56.8534 206.002 51.9004 206.002 45.6864C206.002 39.4734 207.995 34.5314 211.982 30.8614C215.969 27.1924 220.678 25.3574 226.11 25.3574C231.542 25.3574 236.151 26.9974 239.944 30.2744C243.735 33.5524 245.631 38.0534 245.631 43.7784V49.6494H216.863C217.204 51.8024 218.331 53.5634 220.239 54.9334C222.147 56.3034 224.299 56.9884 226.697 56.9884C230.561 56.9884 233.742 55.6924 236.237 53.0984L242.402 59.7764ZM231.835 36.3654C230.316 35.0934 228.47 34.4574 226.294 34.4574C224.116 34.4574 222.122 35.1174 220.312 36.4394C218.502 37.7604 217.451 39.5474 217.158 41.7964H234.478C234.231 39.4474 233.35 37.6384 231.835 36.3654Z" fill="white"/>
<path d="M285.115 59.7764C280.662 63.9854 275.438 66.0884 269.447 66.0884C263.454 66.0884 258.498 64.2424 254.586 60.5474C250.671 56.8534 248.715 51.9004 248.715 45.6864C248.715 39.4734 250.708 34.5314 254.695 30.8614C258.682 27.1924 263.391 25.3574 268.823 25.3574C274.254 25.3574 278.864 26.9974 282.658 30.2744C286.448 33.5524 288.344 38.0534 288.344 43.7784V49.6494H259.576C259.918 51.8024 261.045 53.5634 262.951 54.9334C264.86 56.3034 267.012 56.9884 269.41 56.9884C273.274 56.9884 276.455 55.6924 278.951 53.0984L285.115 59.7764ZM274.547 36.3654C273.029 35.0934 271.183 34.4574 269.006 34.4574C266.829 34.4574 264.835 35.1174 263.026 36.4394C261.214 37.7604 260.164 39.5474 259.871 41.7964H277.19C276.943 39.4474 276.064 37.6384 274.547 36.3654Z" fill="white"/>
<path d="M304.635 43.4834V65.5005H293.627V26.0175H304.635V30.4205C307.963 27.0445 311.704 25.3564 315.864 25.3564C320.021 25.3564 323.509 26.8234 326.321 29.7594C329.134 32.6944 330.542 36.6094 330.542 41.5014V65.4995H319.534V43.1884C319.534 37.1224 317.305 34.0885 312.855 34.0885C310.653 34.0885 308.733 34.8844 307.094 36.4734C305.454 38.0654 304.635 40.4014 304.635 43.4834Z" fill="white"/>
<path d="M166.372 78.4326V88.6336H140.833V99.2026H163.804V108.963H140.833V119.605H167.18V129.733H129.385V78.4336L166.372 78.4326Z" fill="white"/>
<path d="M184.277 107.714V129.732H173.27V90.2489H184.278V94.6529C187.606 91.2749 191.347 89.5869 195.507 89.5869C199.664 89.5869 203.152 91.0559 205.964 93.9899C208.777 96.9249 210.185 100.84 210.185 105.732V129.731H199.177V107.42C199.177 101.354 196.948 98.3189 192.498 98.3189C190.296 98.3189 188.376 99.1159 186.737 100.706C185.097 102.297 184.277 104.632 184.277 107.714Z" fill="white"/>
<path d="M251.723 124.007C247.27 128.216 242.047 130.317 236.056 130.317C230.061 130.317 225.107 128.471 221.194 124.777C217.279 121.084 215.322 116.129 215.322 109.916C215.322 103.703 217.316 98.7599 221.303 95.0919C225.29 91.4219 230 89.5869 235.431 89.5869C240.862 89.5869 245.472 91.2289 249.265 94.5039C253.056 97.7829 254.952 102.283 254.952 108.009V113.88H226.184C226.526 116.033 227.652 117.795 229.559 119.163C231.468 120.534 233.621 121.219 236.018 121.219C239.882 121.219 243.063 119.922 245.558 117.329L251.723 124.007ZM241.154 100.596C239.636 99.3239 237.79 98.6889 235.613 98.6889C233.436 98.6889 231.442 99.3489 229.633 100.669C227.822 101.99 226.771 103.776 226.478 106.027H243.797C243.551 103.679 242.671 101.868 241.154 100.596Z" fill="white"/>
<path d="M281.004 99.9369C277.725 99.9369 275.279 101.098 273.665 103.421C272.051 105.746 271.242 108.816 271.242 112.632V129.732H260.234V90.2489H271.242V95.4599C272.662 93.8459 274.435 92.4769 276.564 91.3499C278.692 90.2259 280.857 89.6379 283.057 89.5879L283.131 99.9379H281.004V99.9369Z" fill="white"/>
<path d="M316.964 123.053C313.49 126.918 309.172 128.852 304.012 128.852C298.848 128.852 294.494 127.103 290.948 123.604C287.401 120.106 285.627 115.434 285.627 109.587C285.627 103.74 287.45 98.9459 291.096 95.2019C294.74 91.4589 298.911 89.5879 303.609 89.5879C308.306 89.5879 312.196 91.5229 315.278 95.3859V90.1759H326.286V124.595C326.286 128.118 325.674 131.248 324.452 133.99C323.229 136.729 321.59 138.881 319.535 140.448C315.472 143.677 310.679 145.292 305.15 145.292C302.215 145.292 299.217 144.814 296.16 143.86C293.101 142.906 290.424 141.549 288.124 139.787L292.381 131.495C296.001 134.234 299.83 135.603 303.866 135.603C307.903 135.603 311.096 134.6 313.444 132.595C315.79 130.587 316.964 127.408 316.964 123.053ZM315.423 109.146C315.423 105.992 314.542 103.507 312.78 101.696C311.02 99.8879 308.842 98.9819 306.249 98.9819C303.655 98.9819 301.417 99.8879 299.534 101.696C297.651 103.508 296.709 105.98 296.709 109.11C296.709 112.241 297.626 114.773 299.461 116.706C301.296 118.639 303.534 119.604 306.176 119.604C308.818 119.604 311.021 118.65 312.78 116.742C314.542 114.833 315.423 112.301 315.423 109.146Z" fill="white"/>
<path d="M340.888 145.29C337.023 145.29 333.377 143.724 329.953 140.593L334.943 132.446C336.802 134.257 338.711 135.162 340.669 135.162C341.696 135.162 342.575 134.659 343.31 133.658C344.045 132.655 344.411 131.591 344.411 130.465C344.411 129.34 339.322 115.935 329.146 90.248H340.888L350.502 114.833L360.117 90.248H371.859L353.512 136.777C352.435 139.467 350.759 141.558 348.484 143.05C346.209 144.543 343.676 145.29 340.888 145.29Z" fill="white"/>
<path d="M81.4703 3.07325C71.7205 -3.13789 63.8788 0.295822 60.1241 11.2941L52.338 36.4391C51.5846 38.8397 52.7012 40.7864 54.8333 40.7864H76.314C83.0203 40.7864 88.1625 48.9016 82.8244 55.4949L47.1776 98.0727C45.5304 100.108 43.031 99.3025 43.7628 96.9719L51.9812 64.6824C52.7357 62.2812 51.6179 60.3351 49.4864 60.3351H34.5693C26.1058 60.3351 23.9187 54.1496 25.6759 47.7425L35.4976 10.9009C37.1945 4.53634 30.8947 -1.44553 25.2536 1.9771C10.1124 11.1628 0 27.7737 0 46.7408C0 86.5109 32.7051 93.9495 26.3936 130C54.5087 118.556 105 87.6555 105 46.7408C104.999 28.5047 95.8065 12.2065 81.4703 3.07325Z" fill="#00D4AA"/>
</svg>
